<svg width="16" height="16" viewBox="0 0 16 16" fill="none" xmlns="http://www.w3.org/2000/svg">
<path fill-rule="evenodd" clip-rule="evenodd" d="M8.97978 2.97982C9.17504 2.78456 9.49162 2.78456 9.68689 2.97982L14.3536 7.64649C14.4473 7.74026 14.5 7.86743 14.5 8.00004C14.5 8.13265 14.4473 8.25983 14.3536 8.35359L9.68689 13.0203C9.49162 13.2155 9.17504 13.2155 8.97978 13.0203C8.78452 12.825 8.78452 12.5084 8.97978 12.3132L12.7929 8.50004L2 8.50004C1.72386 8.50004 1.5 8.27618 1.5 8.00004C1.5 7.7239 1.72386 7.50004 2 7.50004L12.7929 7.50004L8.97978 3.68693C8.78452 3.49167 8.78452 3.17508 8.97978 2.97982Z" fill="#B39166"/>
</svg>
