<svg width="32" height="32" viewBox="0 0 32 32" fill="none" xmlns="http://www.w3.org/2000/svg">
<path fill-rule="evenodd" clip-rule="evenodd" d="M10.1666 9.33333C10.1666 6.11167 12.7783 3.5 15.9999 3.5C19.2216 3.5 21.8333 6.11167 21.8333 9.33333V11.5H25.3333C25.5933 11.5 25.8099 11.6993 25.8315 11.9585L27.1649 27.9585C27.1765 28.0978 27.1292 28.2357 27.0345 28.3386C26.9398 28.4415 26.8064 28.5 26.6666 28.5H5.33325C5.19343 28.5 5.05999 28.4415 4.96531 28.3386C4.87063 28.2357 4.82337 28.0978 4.83498 27.9585L6.16831 11.9585C6.18991 11.6993 6.40654 11.5 6.66659 11.5H10.1666V9.33333ZM10.1666 12.5V14.6667H11.1666V12.5H20.8333V14.6667H21.8333V12.5H24.8732L26.1232 27.5H5.87665L7.12665 12.5H10.1666ZM20.8333 11.5H11.1666V9.33333C11.1666 6.66396 13.3305 4.5 15.9999 4.5C18.6693 4.5 20.8333 6.66396 20.8333 9.33333V11.5Z" fill="#B39166"/>
</svg>
